<svg xmlns="http://www.w3.org/2000/svg" xmlns:xlink="http://www.w3.org/1999/xlink" width="300" height="133" viewBox="0 0 300 133">
    <defs>
        <rect id="b" width="240" height="73" rx="3"/>
        <filter id="a" width="143.8%" height="243.8%" x="-21.9%" y="-51.4%" filterUnits="objectBoundingBox">
            <feOffset dy="15" in="SourceAlpha" result="shadowOffsetOuter1"/>
            <feGaussianBlur in="shadowOffsetOuter1" result="shadowBlurOuter1" stdDeviation="15"/>
            <feColorMatrix in="shadowBlurOuter1" values="0 0 0 0 0 0 0 0 0 0 0 0 0 0 0 0 0 0 0.0685642483 0"/>
        </filter>
    </defs>
    <g fill="none" fill-rule="evenodd">
        <g transform="translate(30 15)">
            <use fill="#000" filter="url(#a)" xlink:href="#b"/>
            <use fill="#FFF" xlink:href="#b"/>
        </g>
        <path fill="#4B4F55" fill-rule="nonzero" d="M51.65 47h-1.292l3.739-10.182h1.272L59.108 47h-1.293l-1.024-2.884h-4.116L51.65 47zm1.412-3.977h3.341l-1.63-4.594h-.08l-1.63 4.594zM72.83 40h-1.233c-.299-1.412-1.512-2.168-2.864-2.168-1.85 0-3.301 1.432-3.301 4.077s1.452 4.077 3.3 4.077c1.353 0 2.566-.756 2.865-2.168h1.233c-.378 2.088-2.049 3.321-4.097 3.321-2.605 0-4.494-2.008-4.494-5.23 0-3.221 1.889-5.23 4.494-5.23 2.048 0 3.719 1.233 4.097 3.321zm4.076 7.179c-1.451 0-2.605-.855-2.605-2.347 0-1.75 1.546-2.063 2.963-2.247 1.392-.179 1.969-.149 1.969-.716 0-.989-.522-1.57-1.61-1.57-1.12 0-1.731.596-1.99 1.153l-1.113-.398c.596-1.392 1.909-1.79 3.062-1.79.975 0 2.824.279 2.824 2.705V47h-1.173v-1.034h-.06c-.238.497-.934 1.213-2.267 1.213zm.18-1.054c1.391 0 2.147-.935 2.147-1.89v-1.073c-.199.239-1.531.378-2.028.437-.915.12-1.73.398-1.73 1.293 0 .815.676 1.233 1.61 1.233zm6.641-9.307V47h-1.173V36.818h1.173zm6.523 5.27v1.094h-4.455v-1.094h4.455zM92.895 47h-1.293l3.739-10.182h1.273L100.352 47H99.06l-1.024-2.884h-4.117L92.895 47zm1.412-3.977h3.34l-1.63-4.594h-.08l-1.63 4.594zM109.023 47h-3.142V36.818h3.28c2.964 0 4.714 1.91 4.714 5.071 0 3.182-1.75 5.111-4.852 5.111zm-1.91-1.094h1.83c2.526 0 3.739-1.531 3.739-4.017 0-2.466-1.213-3.977-3.6-3.977h-1.968v7.994zm11.773 1.253c-2.068 0-3.46-1.57-3.46-3.937 0-2.387 1.392-3.958 3.46-3.958 2.069 0 3.46 1.571 3.46 3.958 0 2.366-1.391 3.937-3.46 3.937zm0-1.054c1.571 0 2.287-1.352 2.287-2.883 0-1.532-.716-2.904-2.287-2.904-1.57 0-2.287 1.372-2.287 2.904 0 1.53.716 2.883 2.287 2.883zm8.353 1.054c-2.148 0-3.46-1.65-3.46-3.937 0-2.327 1.372-3.958 3.44-3.958 1.61 0 2.824.955 3.022 2.387h-1.173c-.179-.696-.795-1.333-1.83-1.333-1.372 0-2.286 1.134-2.286 2.864 0 1.77.895 2.923 2.287 2.923.914 0 1.61-.497 1.83-1.332h1.172c-.198 1.352-1.312 2.386-3.002 2.386zM142.273 47h-1.134v-1.173H141c-.259.417-.756 1.332-2.227 1.332-1.91 0-3.242-1.531-3.242-3.957 0-2.407 1.333-3.938 3.262-3.938 1.491 0 1.948.915 2.207 1.313h.1v-3.759h1.173V47zm-1.154-3.818c0-1.71-.755-2.864-2.187-2.864-1.492 0-2.227 1.253-2.227 2.864 0 1.63.755 2.923 2.227 2.923 1.412 0 2.187-1.193 2.187-2.923zm6.404 3.977c-2.068 0-3.46-1.57-3.46-3.937 0-2.387 1.392-3.958 3.46-3.958s3.46 1.571 3.46 3.958c0 2.366-1.392 3.937-3.46 3.937zm0-1.054c1.57 0 2.287-1.352 2.287-2.883 0-1.532-.716-2.904-2.287-2.904s-2.287 1.372-2.287 2.904c0 1.53.716 2.883 2.287 2.883zm8.352 1.054c-2.148 0-3.46-1.65-3.46-3.937 0-2.327 1.372-3.958 3.44-3.958 1.61 0 2.824.955 3.023 2.387h-1.173c-.18-.696-.796-1.333-1.83-1.333-1.372 0-2.287 1.134-2.287 2.864 0 1.77.895 2.923 2.287 2.923.915 0 1.61-.497 1.83-1.332h1.173c-.199 1.352-1.313 2.386-3.003 2.386zm8.034-7.795v.994h-1.63v4.455c0 .994.497 1.153 1.014 1.153.258 0 .417-.04.517-.06l.238 1.054c-.159.06-.437.14-.875.14-.994 0-2.068-.637-2.068-1.97v-4.772h-1.153v-.994h1.153v-1.83h1.173v1.83h1.631zm4.872 7.795c-2.068 0-3.46-1.57-3.46-3.937 0-2.387 1.392-3.958 3.46-3.958s3.46 1.571 3.46 3.958c0 2.366-1.392 3.937-3.46 3.937zm0-1.054c1.571 0 2.287-1.352 2.287-2.883 0-1.532-.716-2.904-2.287-2.904-1.57 0-2.287 1.372-2.287 2.904 0 1.53.716 2.883 2.287 2.883zm5.25.895v-7.636h1.134v1.153h.08c.273-.756 1.063-1.273 1.988-1.273.423 0 .736.11.974.279l-.397.994c-.164-.084-.383-.14-.676-.14-1.114 0-1.93.761-1.93 1.79V47h-1.173zm11.554.179c-1.451 0-2.605-.855-2.605-2.347 0-1.75 1.546-2.063 2.963-2.247 1.392-.179 1.969-.149 1.969-.716 0-.989-.522-1.57-1.61-1.57-1.12 0-1.731.596-1.99 1.153l-1.113-.398c.596-1.392 1.909-1.79 3.062-1.79.975 0 2.824.279 2.824 2.705V47h-1.173v-1.034h-.06c-.238.497-.934 1.213-2.267 1.213zm.18-1.054c1.391 0 2.147-.935 2.147-1.89v-1.073c-.199.239-1.531.378-2.028.437-.915.12-1.73.398-1.73 1.293 0 .815.676 1.233 1.61 1.233zm8.789-6.761v.994h-1.63v4.455c0 .994.496 1.153 1.013 1.153.259 0 .418-.04.518-.06l.238 1.054c-.159.06-.437.14-.875.14-.994 0-2.068-.637-2.068-1.97v-4.772h-1.153v-.994h1.153v-1.83h1.173v1.83h1.631zm5.17 0v.994h-1.63v4.455c0 .994.497 1.153 1.014 1.153.258 0 .418-.04.517-.06l.239 1.054c-.16.06-.438.14-.875.14-.995 0-2.069-.637-2.069-1.97v-4.772h-1.153v-.994h1.153v-1.83h1.174v1.83h1.63zm4.972 7.795c-2.207 0-3.56-1.57-3.56-3.918 0-2.346 1.373-3.977 3.44-3.977 1.592 0 3.282.975 3.282 3.818v.498h-5.543c.054 1.635 1.004 2.525 2.381 2.525.92 0 1.61-.398 1.91-1.193l1.133.318c-.358 1.154-1.492 1.93-3.043 1.93zm-2.381-4.594h4.35c0-1.292-.816-2.247-2.088-2.247-1.343 0-2.183 1.06-2.262 2.247zm8.506-.159V47h-1.173v-7.636h1.133v1.193h.1c.358-.776 1.074-1.293 2.227-1.293 1.546 0 2.585.935 2.585 2.884V47h-1.173v-4.773c0-1.198-.661-1.909-1.75-1.909-1.124 0-1.949.756-1.949 2.088zM224.224 47h-1.133v-1.173h-.14c-.258.417-.755 1.332-2.227 1.332-1.909 0-3.241-1.531-3.241-3.957 0-2.407 1.332-3.938 3.261-3.938 1.492 0 1.95.915 2.208 1.313h.1v-3.759h1.172V47zm-1.153-3.818c0-1.71-.756-2.864-2.187-2.864-1.492 0-2.228 1.253-2.228 2.864 0 1.63.756 2.923 2.228 2.923 1.411 0 2.187-1.193 2.187-2.923zM226.372 47v-7.636h1.173V47h-1.173zm.597-8.89c-.458 0-.835-.357-.835-.795 0-.437.377-.795.835-.795.457 0 .835.358.835.795 0 .438-.378.796-.835.796zm3.897 4.296V47h-1.173v-7.636h1.134v1.193h.1c.357-.776 1.073-1.293 2.226-1.293 1.547 0 2.586.935 2.586 2.884V47h-1.174v-4.773c0-1.198-.66-1.909-1.75-1.909-1.123 0-1.949.756-1.949 2.088zm10.063 7.458c-1.63 0-2.605-.716-3.082-1.532l.934-.656c.299.378.835 1.134 2.148 1.134 1.173 0 2.187-.597 2.168-1.87v-1.352h-.1c-.258.418-.736 1.293-2.227 1.293-1.85 0-3.242-1.353-3.242-3.739 0-2.347 1.333-3.878 3.262-3.878 1.491 0 1.969.915 2.227 1.313h.12v-1.213h1.133v7.696c0 1.968-1.571 2.804-3.341 2.804zm0-4.037c1.412 0 2.187-1.014 2.187-2.705 0-1.65-.755-2.804-2.187-2.804-1.492 0-2.227 1.253-2.227 2.804 0 1.591.755 2.705 2.227 2.705zM54.395 61.364v.994h-1.63v4.455c0 .994.496 1.153 1.013 1.153.259 0 .418-.04.517-.06l.24 1.054c-.16.06-.438.14-.876.14-.994 0-2.068-.637-2.068-1.97v-4.772h-1.154v-.994h1.154v-1.83h1.173v1.83h1.63zm4.872 7.795c-2.068 0-3.46-1.57-3.46-3.937 0-2.387 1.392-3.958 3.46-3.958s3.46 1.571 3.46 3.958c0 2.366-1.392 3.937-3.46 3.937zm0-1.054c1.571 0 2.287-1.352 2.287-2.883 0-1.532-.716-2.904-2.287-2.904s-2.287 1.372-2.287 2.904c0 1.53.716 2.883 2.287 2.883zm11.435 1.074c-1.452 0-2.605-.855-2.605-2.347 0-1.75 1.546-2.063 2.963-2.247 1.392-.179 1.968-.149 1.968-.716 0-.989-.522-1.57-1.61-1.57-1.119 0-1.73.596-1.989 1.153l-1.114-.398c.597-1.392 1.91-1.79 3.063-1.79.974 0 2.824.279 2.824 2.705V69h-1.174v-1.034h-.06c-.238.497-.934 1.213-2.266 1.213zm.179-1.054c1.392 0 2.147-.935 2.147-1.89v-1.073c-.198.239-1.53.378-2.028.437-.915.12-1.73.398-1.73 1.293 0 .815.676 1.233 1.61 1.233zm6.642-3.719V69h-1.174v-7.636h1.134v1.193h.1c.357-.776 1.073-1.293 2.227-1.293 1.546 0 2.585.935 2.585 2.884V69h-1.173v-4.773c0-1.198-.662-1.909-1.75-1.909-1.124 0-1.95.756-1.95 2.088zm14.159 4.753c-2.208 0-3.56-1.57-3.56-3.918 0-2.346 1.372-3.977 3.44-3.977 1.591 0 3.282.975 3.282 3.818v.498H89.3c.055 1.635 1.005 2.525 2.382 2.525.92 0 1.61-.398 1.909-1.193l1.133.318c-.358 1.154-1.491 1.93-3.042 1.93zM89.3 64.565h4.35c0-1.292-.815-2.247-2.088-2.247-1.342 0-2.182 1.06-2.262 2.247zm8.507-5.747V69h-1.173V58.818h1.173zM106.338 69h-1.133v-1.173h-.14c-.258.417-.755 1.332-2.227 1.332-1.909 0-3.241-1.531-3.241-3.957 0-2.407 1.332-3.938 3.261-3.938 1.491 0 1.949.915 2.207 1.313h.1v-3.759h1.173V69zm-1.153-3.818c0-1.71-.756-2.864-2.188-2.864-1.491 0-2.227 1.253-2.227 2.864 0 1.63.756 2.923 2.227 2.923 1.412 0 2.188-1.193 2.188-2.923zm6.502 3.977c-2.207 0-3.56-1.57-3.56-3.918 0-2.346 1.373-3.977 3.441-3.977 1.591 0 3.281.975 3.281 3.818v.498h-5.543c.055 1.635 1.004 2.525 2.381 2.525.92 0 1.611-.398 1.91-1.193l1.133.318c-.358 1.154-1.491 1.93-3.043 1.93zm-2.38-4.594h4.35c0-1.292-.816-2.247-2.089-2.247-1.342 0-2.182 1.06-2.262 2.247zM116.638 69v-7.636h1.134v1.153h.08c.273-.756 1.063-1.273 1.988-1.273.422 0 .736.11.974.279l-.397.994c-.164-.084-.383-.14-.677-.14-1.113 0-1.929.761-1.929 1.79V69h-1.173zm6.543-10.182V69h-1.173V58.818h1.173zm2.863 13.145c-.397 0-.735-.08-.855-.14l.299-1.033c.855.219 1.372.1 1.81-1.034l.278-.696-2.844-7.696h1.273l2.108 6.085h.08l2.107-6.085h1.273l-3.281 8.869c-.438 1.173-1.174 1.73-2.248 1.73zm14.517-2.804c-1.471 0-1.968-.915-2.227-1.332h-.1v4.037h-1.173v-10.5h1.134v1.213h.14c.258-.398.715-1.313 2.207-1.313 1.929 0 3.261 1.531 3.261 3.938 0 2.426-1.332 3.957-3.242 3.957zm-.159-1.054c1.472 0 2.228-1.292 2.228-2.923 0-1.611-.736-2.864-2.228-2.864-1.431 0-2.187 1.154-2.187 2.864 0 1.73.775 2.923 2.187 2.923zm7.438 1.074c-1.452 0-2.605-.855-2.605-2.347 0-1.75 1.546-2.063 2.963-2.247 1.392-.179 1.969-.149 1.969-.716 0-.989-.522-1.57-1.611-1.57-1.119 0-1.73.596-1.989 1.153l-1.113-.398c.596-1.392 1.909-1.79 3.062-1.79.974 0 2.824.279 2.824 2.705V69h-1.173v-1.034h-.06c-.239.497-.935 1.213-2.267 1.213zm.179-1.054c1.392 0 2.148-.935 2.148-1.89v-1.073c-.2.239-1.532.378-2.029.437-.915.12-1.73.398-1.73 1.293 0 .815.676 1.233 1.61 1.233zm8.79-6.761v.994h-1.631v4.455c0 .994.497 1.153 1.014 1.153.259 0 .418-.04.517-.06l.239 1.054c-.16.06-.438.14-.875.14-.994 0-2.068-.637-2.068-1.97v-4.772h-1.154v-.994h1.154v-1.83h1.173v1.83h1.63zM158.66 69v-7.636h1.172V69h-1.173zm.596-8.89c-.458 0-.836-.357-.836-.795 0-.437.378-.795.836-.795.457 0 .835.358.835.795 0 .438-.378.796-.835.796zm5.926 9.05c-2.208 0-3.56-1.572-3.56-3.919 0-2.346 1.372-3.977 3.44-3.977 1.591 0 3.282.975 3.282 3.818v.498H162.8c.055 1.635 1.005 2.525 2.382 2.525.92 0 1.61-.398 1.909-1.193l1.133.318c-.358 1.154-1.491 1.93-3.042 1.93zm-2.382-4.595h4.35c0-1.292-.815-2.247-2.088-2.247-1.342 0-2.182 1.06-2.262 2.247zm8.507-.159V69h-1.173v-7.636h1.133v1.193h.1c.357-.776 1.073-1.293 2.227-1.293 1.546 0 2.585.935 2.585 2.884V69h-1.173v-4.773c0-1.198-.662-1.909-1.75-1.909-1.124 0-1.95.756-1.95 2.088zm10.34-3.042v.994h-1.63v4.455c0 .994.497 1.153 1.014 1.153.259 0 .418-.04.517-.06l.239 1.054c-.16.06-.438.14-.875.14-.994 0-2.068-.637-2.068-1.97v-4.772h-1.154v-.994h1.154v-1.83h1.173v1.83h1.63z"/>
        <path fill="#FF002A" d="M33 15h2v73h-2a3 3 0 0 1-3-3V18a3 3 0 0 1 3-3z"/>
    </g>
</svg>
