<svg xmlns="http://www.w3.org/2000/svg" xmlns:xlink="http://www.w3.org/1999/xlink" width="48" height="48" viewBox="0 0 48 48">
    <defs>
        <rect id="a" width="48" height="48" rx="24"/>
        <rect id="c" width="35" height="35" rx="17.5"/>
        <path id="e" d="M7.875 4.408c0 .805.081 1.53.237 2.204H0V4.408C0 3.8.505 3.306 1.125 3.306h6.75v1.102zm10.079 4.408H18v5.51c0 .608-.504 1.102-1.125 1.102H1.125c-.62 0-1.125-.494-1.125-1.102v-5.51h9.048c.769 1.157 1.939 2.143 3.615 3.089a1.72 1.72 0 0 0 1.677-.002c1.677-.944 2.847-1.929 3.614-3.087zM5.062 12.122c.311 0 .563-.247.563-.551a.557.557 0 0 0-.563-.551h-2.25a.557.557 0 0 0-.562.55c0 .305.252.552.563.552h2.25zM17.66 1.698c.207.086.341.285.341.506v2.204c0 3.036-1.144 4.808-4.22 6.54a.574.574 0 0 1-.56 0C10.144 9.21 9 7.438 9 4.407V2.204c0-.22.134-.42.34-.506L13.277.045a.575.575 0 0 1 .445 0l3.937 1.653zm-2.032 2.504a.543.543 0 0 0-.088-.774.573.573 0 0 0-.791.086L12.979 5.68l-.698-1.026a.57.57 0 0 0-.78-.153.544.544 0 0 0-.156.764l1.124 1.653c.1.147.266.237.445.245h.024c.17 0 .331-.076.44-.206l2.25-2.755z"/>
    </defs>
    <g fill="none" fill-rule="evenodd">
        <g opacity=".2">
            <mask id="b" fill="#fff">
                <use xlink:href="#a"/>
            </mask>
            <g fill="#EA2E2E" mask="url(#b)">
                <path d="M0 0h48v48H0z"/>
            </g>
        </g>
        <g transform="translate(6.26 6.26)">
            <mask id="d" fill="#fff">
                <use xlink:href="#c"/>
            </mask>
            <g fill="#EA2E2E" mask="url(#d)">
                <path d="M0 0h35v35H0z"/>
            </g>
        </g>
        <g transform="translate(14.76 14.76)">
            <mask id="f" fill="#fff">
                <use xlink:href="#e"/>
            </mask>
            <use fill="#000" fill-rule="nonzero" xlink:href="#e"/>
            <g fill="#FFF" mask="url(#f)">
                <path d="M0 0h18v18H0z"/>
            </g>
        </g>
    </g>
</svg>
