<svg xmlns="http://www.w3.org/2000/svg" xmlns:xlink="http://www.w3.org/1999/xlink" width="1440" height="864" viewBox="0 0 1440 864">
    <defs>
        <path id="a" d="M0 0h1443v645.33C1202.5 791.11 962 864 721.5 864S240.5 791.11 0 645.33V0z"/>
    </defs>
    <g fill="none" fill-rule="evenodd" transform="translate(-2)">
        <mask id="b" fill="#fff">
            <use xlink:href="#a"/>
        </mask>
        <use fill="#FF002A" xlink:href="#a"/>
        <g stroke="#FFF" mask="url(#b)" opacity=".354">
            <path d="M915.78 1483.782c-.565-.445-1.12-.893-1.68-1.34-58.806-46.936-93.46-92.438-107.128-148.577-33.481-137.804 98.535-337.937 215.332-506.666 2.928-4.37 5.954-8.724 8.8-13.078 38.99-60.478 74.985-118.05 100.52-168.43 5.295-10.577 10.182-20.944 14.939-31.133 58.285-128.503 114.402-226.286 81.287-360.278-4.88-19.74-10.042-40.276-16.308-61.18-23.937-79.898-56.307-165.414-107.142-239.154-27.897-40.7-32.052-38.895-91.026-72.177"/>
            <path d="M880.894 1496.94c-.542-.46-1.077-.92-1.611-1.38-56.37-48.391-88.026-95.99-98.574-153.05-26.095-140.99 109-338.869 231.721-507.474 3.08-4.37 6.246-8.726 9.25-13.084 41.025-60.263 82.032-117.987 108.469-169.756 5.471-10.858 11.64-21.523 17.143-32.052 67.459-132.882 130.721-240.974 104.356-379.988-3.905-20.493-8.293-41.662-13.926-63.118-21.505-81.894-53.966-167.667-104.94-241.698-28.193-41.164-31.693-38.472-91.444-72.37"/>
            <path d="M847.338 1509.96c-.514-.472-1.03-.945-1.54-1.42-54.1-49.717-82.511-99.432-89.931-157.375-18.639-144.056 119.448-339.59 248.068-507.978 3.227-4.37 6.53-8.723 9.698-13.081 43.04-60.017 83.954-118.001 116.39-170.978 6.715-11.107 13.099-22.084 19.349-32.944 76.637-137.194 146.99-255.537 127.381-399.505-2.93-21.238-6.549-43.028-11.545-65.026-19.074-83.848-51.604-169.822-102.694-244.092-28.476-41.604-31.311-38.023-91.822-72.516"/>
            <path d="M812.746 1522.837c-.494-.487-.988-.974-1.474-1.462-51.63-51.152-77.006-102.895-81.312-161.76-11.14-147.181 129.994-340.528 264.6-508.808 3.38-4.369 6.825-8.725 10.157-13.086 45.087-59.814 88.504-118.03 124.416-172.302 7.43-11.378 14.565-22.658 21.57-33.856 85.889-141.605 163.352-270.284 150.474-419.318-1.961-22.001-4.815-44.428-9.18-66.982-16.668-85.868-49.28-172.096-100.519-246.658-28.782-42.068-30.95-37.586-92.265-72.701"/>
            <path d="M778.754 1535.575c-.474-.5-.943-1-1.406-1.5-49.087-52.584-71.393-106.332-72.602-166.117-3.624-150.265 140.263-341.396 280.63-509.51 3.52-4.369 7.101-8.726 10.595-13.09 47.046-59.597 92.9-118.026 132.217-173.562 8.135-11.645 16.01-23.228 23.752-34.755 95.003-145.985 178.999-284.894 173.195-439.095-1.054-22.752-3.094-45.837-6.828-68.951-14.285-87.9-46.958-174.384-98.297-249.245-29.067-42.545-30.553-37.151-92.607-72.912"/>
            <path d="M743.588 1548.796c-.449-.513-.895-1.025-1.336-1.54-46.575-53.986-65.8-109.708-63.905-170.417 3.97-153.321 150.78-342.31 297.1-510.306 3.675-4.369 7.395-8.73 11.051-13.098 49.07-59.397 97.442-118.054 140.223-174.857 8.848-11.914 17.48-23.799 25.97-35.658 104.273-150.4 195.373-299.704 196.17-458.982-.08-23.527-1.374-47.255-4.482-70.93-11.907-89.948-44.645-176.683-96.129-251.833-29.372-43.02-30.171-36.708-93.025-73.104"/>
            <path d="M709.703 1562.011c-.429-.525-.85-1.05-1.268-1.578-44.058-55.373-60.172-113.044-55.167-174.679 11.609-156.344 161.345-343.23 313.661-511.112 3.822-4.368 7.685-8.733 11.504-13.102 51.108-59.21 102.012-118.094 148.269-176.15a2720.37 2720.37 0 0 0 28.202-36.56c113.596-154.832 211.79-314.55 219.181-478.934.892-24.305.275-48.662-2.133-72.923-9.783-91.934-42.35-178.986-93.976-254.43-29.685-43.493-29.792-36.253-93.463-73.289"/>
            <path d="M675.096 1574.602c-.404-.538-.802-1.075-1.197-1.616-41.495-56.751-54.482-116.343-46.383-178.9 19.242-159.322 171.702-344.094 329.833-511.82 3.973-4.369 7.959-8.737 11.952-13.104 52.921-59.04 106.309-118.137 156.15-177.396a3488.962 3488.962 0 0 0 30.402-37.45c122.528-159.27 227.933-329.357 241.855-498.853 1.86-25.093 2.004-50.106.187-74.925-7.322-94.043-40.05-181.308-91.794-257.048-29.98-43.977-29.387-35.798-93.826-73.491"/>
            <path d="M640.859 1587.492a206.59 206.59 0 0 1-1.128-1.653c-135.658-202.753 78.426-463.396 309.045-695.36a5745.28 5745.28 0 0 1 12.41-13.104c66.57-71.18 134.35-143.072 196.943-216.932 151.29-188.069 276.215-398.432 267.496-595.556-4.84-96.115-37.738-183.529-89.621-259.505-30.295-44.432-28.997-35.312-94.266-73.62"/>
            <g>
                <path d="M498.265 575.75c.244-.434.48-.867.72-1.3 25.203-45.528 34.994-83.354 28.02-121.81C509.845 358.265 366.6 272.2 242.235 201.192c-3.157-1.866-6.375-3.695-9.474-5.575-42.694-26.263-82.603-51.58-113.62-75.419-6.468-5.024-12.61-10.033-18.617-14.97C25.893 42.492-38.602-1.926-54.923-93.85c-2.402-13.543-4.848-27.656-6.673-42.307-6.987-55.998-10.044-117.838 2.335-177.634 6.726-32.958 9.96-33.019 39.146-70.18"/>
                <path d="M522.857 574.087c.225-.436.445-.87.664-1.305 23.24-45.726 30.493-83.984 21.216-122.108-22.9-94.209-167.674-177.932-296.022-247.12-3.26-1.822-6.574-3.61-9.781-5.446-44.013-25.53-87.293-49.503-119.327-73.922-6.67-5.142-13.743-9.969-20.341-14.9C17.304 46.493-54.87-2.216-77.033-95.284c-3.255-13.725-6.385-28.003-8.78-42.81-9.138-56.514-12.192-118.511.23-178.505 6.81-33.316 9.869-32.647 39.439-70.402"/>
                <path d="M550.55 572.816c.205-.437.409-.874.61-1.311 21.428-45.959 25.97-84.65 14.373-122.475-28.704-94.094-175.068-175.593-307.49-243.033-3.364-1.78-6.773-3.531-10.094-5.322-45.356-24.83-88.737-49.007-125.12-72.496-7.572-4.949-14.89-9.911-22.086-14.839C11.36 50.428-68.532-2.638-96.573-96.952c-4.113-13.923-7.928-28.382-10.898-43.36-11.301-57.094-14.36-119.305-1.891-179.551 6.89-33.708 9.772-32.302 39.742-70.687"/>
                <path d="M576.288 570.037c.187-.44.373-.88.554-1.32 19.424-46.168 21.4-85.27 7.485-122.799-34.548-93.941-182.445-173.25-318.912-238.944-3.468-1.738-6.975-3.45-10.408-5.197-46.692-24.132-91.83-47.75-130.906-71.06-8.127-4.916-16.033-9.853-23.83-14.778C3.457 52.907-84.137-4.538-118.068-100.114c-4.97-14.126-9.473-28.768-13.019-43.915-13.463-57.686-16.536-120.107-4.032-180.606 6.972-34.098 9.675-31.947 40.035-70.966"/>
                <path d="M602.565 569.435c.17-.442.335-.884.498-1.323 17.33-46.31 16.716-85.76.509-122.962-40.35-93.672-189.339-170.802-329.467-234.738-3.558-1.696-7.152-3.37-10.691-5.072-47.89-23.433-94.665-46.483-136.318-69.6-8.661-4.877-17.136-9.79-25.505-14.707C-2.41 57.906-97.156-3.972-137.192-100.688c-5.777-14.326-11-29.136-15.117-44.444-15.602-58.237-18.708-120.803-6.232-181.486 7.018-34.456 9.53-31.55 40.172-71.157"/>
                <path d="M627.828 567.335c.15-.443.296-.885.44-1.326 15.256-46.44 12.052-86.216-6.443-123.095-46.173-93.368-196.312-168.335-340.165-230.5-3.655-1.654-7.338-3.29-10.98-4.948-49.112-22.733-97.554-45.207-141.798-68.119a1793.59 1793.59 0 0 1-27.191-14.633C-9.542 61.504-111.81-4.755-157.59-102.692c-6.633-14.522-12.525-29.511-17.21-44.98-17.736-58.801-20.876-121.51-8.41-182.38 7.072-34.817 9.39-31.154 40.338-71.355"/>
                <path d="M655.687 566.227c.133-.445.26-.889.384-1.332 13.19-46.598 7.385-86.714-13.41-123.303-52.038-93.12-203.426-166.024-351.108-226.48-3.75-1.613-7.526-3.213-11.274-4.827-50.371-22.06-100.515-43.977-147.375-66.698a1931.319 1931.319 0 0 1-28.9-14.57C-14.551 65.66-124.385-5.063-175.938-104.333c-7.49-14.734-14.005-29.928-19.317-45.568-19.696-59.452-23.049-122.336-10.592-183.45 7.13-35.209 9.258-30.776 40.533-71.612"/>
                <path d="M680.102 564.205c.112-.447.22-.89.326-1.336 11.102-46.74 2.694-87.174-20.39-123.477-57.88-92.846-210.387-163.734-361.772-222.502-3.848-1.572-7.704-3.14-11.564-4.705-51.49-21.462-103.302-42.827-152.833-65.294a2485.902 2485.902 0 0 1-30.584-14.51C-22.34 68.766-139.806-6.364-197.087-106.991c-8.348-14.954-15.548-30.344-21.406-46.17-21.91-60.084-25.228-123.17-12.796-184.523 7.176-35.605 9.11-30.392 40.678-71.861"/>
                <path d="M707.875 562.094c.092-.445.183-.892.27-1.338C739.584 397.436 525.08 297.273 307.87 219.46c-3.946-1.527-7.902-3.05-11.865-4.57-63.899-25.063-128.793-50.224-190.843-78.064-152.688-73.173-294.407-167.54-344.668-291.517-24.12-60.615-27.359-123.796-14.89-185.292 7.26-35.951 8.999-29.962 40.95-72.022"/>
            </g>
        </g>
    </g>
</svg>
