<svg xmlns="http://www.w3.org/2000/svg" width="84" height="60" viewBox="0 0 84 60">
    <g fill="none" fill-rule="evenodd">
        <circle cx="30" cy="30" r="30" fill="#FF7E94" opacity=".1"/>
        <g fill="#FF002A" fill-rule="nonzero">
            <path d="M64.468 16.933c0-4.188-3.343-7.583-7.468-7.583s-7.468 3.395-7.468 7.583c0 4.188 3.343 7.584 7.468 7.584 4.111-.032 7.437-3.409 7.468-7.584zm-12.638 0c0-2.9 2.315-5.25 5.17-5.25s5.17 2.35 5.17 5.25-2.315 5.25-5.17 5.25-5.17-2.35-5.17-5.25zM83.713 42.95c.018-4.089-2.023-7.903-5.41-10.113a11.622 11.622 0 0 0-11.307-.795 13.631 13.631 0 0 0-9.967-4.354c-3.77 0-7.374 1.575-9.967 4.354a11.622 11.622 0 0 0-11.35.757c-3.404 2.214-5.452 6.046-5.425 10.151v3.092c0 2.577 2.058 4.666 4.596 4.666h44.234c2.538 0 4.596-2.089 4.596-4.666V42.95zm-51.128 3.033V42.95c-.006-3.183 1.539-6.162 4.125-7.96a9.357 9.357 0 0 1 8.8-1.023 14.037 14.037 0 0 0-2.297 7.758v4.317c.002.82.22 1.626.632 2.333h-8.962a2.28 2.28 0 0 1-1.646-.704 2.353 2.353 0 0 1-.652-1.688zm28.724 2.334h-13.5c-1.27 0-2.298-1.045-2.298-2.334v-4.258c0-6.443 5.144-11.667 11.489-11.667 6.345 0 11.49 5.224 11.49 11.667v4.317c0 1.288-1.03 2.333-2.299 2.333l-4.882-.058zm20.163-2.334c0 1.289-1.028 2.334-2.298 2.334h-9.019c.412-.707.63-1.513.632-2.334v-4.258c.01-2.76-.79-5.462-2.298-7.758a9.357 9.357 0 0 1 8.8 1.023c2.587 1.798 4.132 4.777 4.126 7.96l.057 3.033zM71.936 28.658c3.585 0 6.492-2.95 6.492-6.591 0-3.64-2.907-6.592-6.492-6.592s-6.491 2.951-6.491 6.592c0 1.748.684 3.425 1.901 4.66a6.442 6.442 0 0 0 4.59 1.931zm0-10.85c2.316 0 4.194 1.907 4.194 4.259 0 2.351-1.878 4.258-4.194 4.258s-4.193-1.907-4.193-4.258c0-2.352 1.877-4.259 4.193-4.259zM48.555 22.067c0-3.64-2.906-6.592-6.491-6.592-3.585 0-6.492 2.951-6.492 6.592 0 3.64 2.907 6.591 6.492 6.591a6.442 6.442 0 0 0 4.59-1.93 6.644 6.644 0 0 0 1.901-4.661zm-10.685 0c0-2.352 1.878-4.259 4.194-4.259s4.193 1.907 4.193 4.259c0 2.351-1.877 4.258-4.193 4.258s-4.194-1.907-4.194-4.258z"/>
        </g>
    </g>
</svg>
