<svg xmlns="http://www.w3.org/2000/svg" width="27" height="27" viewBox="0 0 27 27">
    <path fill="none" fill-rule="evenodd" stroke="#FF002A" stroke-width="2" d="M24.04 9.625h-6.666V2.96a1.928 1.928 0 0 0-1.928-1.928h-3.892A1.928 1.928 0 0 0 9.626 2.96v6.665H2.96a1.929 1.929 0 0 0-1.928 1.929v3.892c0 1.065.863 1.928 1.928 1.928h6.666v6.666c0 1.065.863 1.928 1.928 1.928h3.892a1.928 1.928 0 0 0 1.928-1.928v-6.666h6.666a1.928 1.928 0 0 0 1.928-1.928v-3.892a1.928 1.928 0 0 0-1.928-1.929z"/>
</svg>
