<svg xmlns="http://www.w3.org/2000/svg" xmlns:xlink="http://www.w3.org/1999/xlink" width="444" height="189" viewBox="0 0 444 189">
    <defs>
        <rect id="b" width="354" height="99" rx="6"/>
        <filter id="a" width="149.4%" height="276.8%" x="-24.7%" y="-48%" filterUnits="objectBoundingBox">
            <feOffset dy="40" in="SourceAlpha" result="shadowOffsetOuter1"/>
            <feGaussianBlur in="shadowOffsetOuter1" result="shadowBlurOuter1" stdDeviation="22.5"/>
            <feColorMatrix in="shadowBlurOuter1" values="0 0 0 0 0 0 0 0 0 0 0 0 0 0 0 0 0 0 0.0489783654 0"/>
        </filter>
    </defs>
    <g fill="none" fill-rule="evenodd">
        <g transform="translate(45 5)">
            <use fill="#000" filter="url(#a)" xlink:href="#b"/>
            <use fill="#FFF" xlink:href="#b"/>
        </g>
        <g fill-rule="nonzero">
            <path fill="#0C1015" d="M124.771 38.148H123c-.29-1.506-1.535-2.341-3.017-2.341-2.006 0-3.506 1.551-3.506 4.375 0 2.846 1.506 4.375 3.5 4.375 1.471 0 2.721-.818 3.023-2.307l1.772.006c-.38 2.3-2.25 3.903-4.807 3.903-3.022 0-5.232-2.256-5.232-5.977 0-3.722 2.221-5.977 5.232-5.977 2.46 0 4.41 1.454 4.807 3.943zm5.654 8.028c-2.46 0-4.068-1.801-4.068-4.5 0-2.716 1.607-4.517 4.068-4.517 2.454 0 4.068 1.801 4.068 4.517 0 2.699-1.614 4.5-4.068 4.5zm0-1.426c1.596 0 2.352-1.403 2.352-3.08 0-1.67-.756-3.09-2.352-3.09-1.603 0-2.358 1.42-2.358 3.09 0 1.677.755 3.08 2.358 3.08zm7.664-3.932V46h-1.698v-8.727h1.63v1.42h.108c.404-.926 1.262-1.534 2.574-1.534 1.784 0 2.972 1.13 2.972 3.29V46h-1.7v-5.347c0-1.267-.698-2.022-1.851-2.022-1.182 0-2.035.795-2.035 2.187zm14.398-1.415l-1.54.273c-.198-.585-.687-1.17-1.744-1.17-.966 0-1.693.477-1.687 1.147-.006.591.409.915 1.369 1.142l1.386.319c1.603.369 2.387 1.13 2.387 2.363 0 1.58-1.46 2.7-3.569 2.7-1.96 0-3.244-.87-3.528-2.416l1.642-.25c.205.858.858 1.296 1.875 1.296 1.114 0 1.835-.529 1.835-1.205 0-.545-.392-.92-1.233-1.108l-1.477-.324c-1.636-.363-2.386-1.187-2.386-2.426 0-1.545 1.397-2.585 3.37-2.585 1.885 0 2.948.886 3.3 2.244zm7.563 2.978v-5.108h1.704V46h-1.67v-1.511h-.091c-.404.931-1.296 1.625-2.608 1.625-1.676 0-2.864-1.125-2.864-3.29v-5.551h1.7v5.346c0 1.188.726 1.95 1.778 1.95.954 0 2.056-.705 2.05-2.188zm5.682-8.017V46h-1.7V34.364h1.7zm6.357 2.909v1.363h-1.79v4.796c-.005.983.495 1.165 1.046 1.165.273 0 .483-.052.597-.074l.307 1.403a3.253 3.253 0 0 1-1.103.182c-1.34.023-2.55-.744-2.545-2.324v-5.148h-1.279v-1.363h1.279v-2.091h1.699v2.09h1.79zm4.49 8.92c-1.66 0-2.95-.943-2.95-2.659 0-1.983 1.693-2.415 3.347-2.608.148-.017.29-.034.426-.045 1.261-.142 1.784-.2 1.778-.767 0-1-.55-1.58-1.659-1.58-1.142 0-1.778.597-2.028 1.216l-1.597-.364c.568-1.59 2.017-2.227 3.614-2.227 1.37 0 3.375.506 3.375 3.046V46h-1.66v-1.193h-.067c-.324.653-1.137 1.386-2.58 1.386zm.368-1.363c1.415 0 2.24-.944 2.24-1.978v-1.125c-.245.245-1.552.392-2.103.466-.983.13-1.79.455-1.79 1.364 0 .84.693 1.273 1.653 1.273zm10.273-7.557v1.363h-1.79v4.796c-.005.983.495 1.165 1.046 1.165.273 0 .483-.052.596-.074l.307 1.403a3.253 3.253 0 0 1-1.102.182c-1.34.023-2.551-.744-2.545-2.324v-5.148h-1.279v-1.363h1.279v-2.091h1.698v2.09h1.79zM189.17 46v-8.727h1.699V46h-1.699zm.858-10.028c-.585 0-1.074-.45-1.074-1.012s.489-1.017 1.074-1.017c.58 0 1.074.455 1.074 1.017 0 .563-.494 1.012-1.074 1.012zm6.812 10.204c-2.46 0-4.068-1.801-4.068-4.5 0-2.716 1.608-4.517 4.068-4.517 2.455 0 4.069 1.801 4.069 4.517 0 2.699-1.614 4.5-4.069 4.5zm0-1.426c1.597 0 2.353-1.403 2.353-3.08 0-1.67-.756-3.09-2.353-3.09-1.602 0-2.357 1.42-2.357 3.09 0 1.677.755 3.08 2.357 3.08zm7.665-3.932V46h-1.699v-8.727h1.631v1.42h.108c.403-.926 1.261-1.534 2.574-1.534 1.784 0 2.971 1.13 2.971 3.29V46h-1.698v-5.347c0-1.267-.7-2.022-1.853-2.022-1.181 0-2.034.795-2.034 2.187zm16.279-3.545v1.363h-1.881V46h-1.705v-7.364h-1.346v-1.363h1.346V36.26c0-1.636 1.21-2.443 2.591-2.443.688 0 1.182.142 1.42.233l-.397 1.375c-.159-.051-.409-.13-.761-.13-.83 0-1.148.42-1.148 1.193v.784h1.88zm5.176 8.903c-2.58 0-4.154-1.773-4.154-4.483 0-2.682 1.597-4.534 4.029-4.534 1.983 0 3.87 1.233 3.87 4.386v.603h-6.211c.045 1.682 1.028 2.625 2.477 2.625.972 0 1.705-.42 2.017-1.245l1.608.29c-.386 1.42-1.733 2.358-3.636 2.358zm-2.46-5.301h4.534c0-1.335-.864-2.312-2.182-2.312-1.387 0-2.279 1.073-2.352 2.312zm11.88 5.301c-2.58 0-4.153-1.773-4.153-4.483 0-2.682 1.596-4.534 4.028-4.534 1.983 0 3.87 1.233 3.87 4.386v.603h-6.21c.045 1.682 1.028 2.625 2.477 2.625.971 0 1.704-.42 2.017-1.245l1.608.29c-.387 1.42-1.733 2.358-3.637 2.358zm-2.46-5.301h4.534c0-1.335-.864-2.312-2.182-2.312-1.386 0-2.278 1.073-2.352 2.312zm14.648-1.472l-1.54.273c-.199-.585-.688-1.17-1.744-1.17-.966 0-1.694.477-1.688 1.147-.006.591.41.915 1.37 1.142l1.386.319c1.602.369 2.386 1.13 2.386 2.363 0 1.58-1.46 2.7-3.568 2.7-1.96 0-3.244-.87-3.528-2.416l1.642-.25c.204.858.858 1.296 1.875 1.296 1.113 0 1.835-.529 1.835-1.205 0-.545-.392-.92-1.233-1.108l-1.477-.324c-1.637-.363-2.387-1.187-2.387-2.426 0-1.545 1.398-2.585 3.37-2.585 1.886 0 2.948.886 3.3 2.244z"/>
            <path fill="#36C7A5" d="M288.521 40.17v1.478h-2.932v2.897h-1.482v-2.897h-2.932V40.17h2.932v-2.897h1.482v2.897h2.932zm15.25-5.806V46h-1.613l-5.915-8.534h-.108V46h-1.756V34.364h1.625l5.92 8.545h.109v-8.545h1.738zm1.682 5.824c0-3.716 2.182-5.983 5.199-5.983 2.511 0 4.46 1.568 4.852 3.835h-1.807c-.448-1.38-1.5-2.233-3.045-2.233-1.972 0-3.455 1.557-3.455 4.37 0 2.834 1.49 4.38 3.54 4.38 1.801 0 3.125-1.227 3.125-3.063h-2.852v-1.449h4.574v1.324c0 2.938-2.023 4.79-4.852 4.79-3.148 0-5.279-2.29-5.279-5.971zm21.25-5.824V46h-1.614l-5.914-8.534h-.108V46h-1.756V34.364h1.625l5.92 8.545h.108v-8.545h1.74zm9.568 11.795c-2.443 0-4.153-1.375-4.142-3.261-.011-1.466 1.017-2.7 2.341-2.932v-.068c-1.153-.273-1.92-1.341-1.909-2.591-.011-1.779 1.557-3.102 3.71-3.102 2.131 0 3.7 1.323 3.71 3.102-.01 1.25-.778 2.318-1.909 2.59v.069c1.302.233 2.33 1.466 2.341 2.932-.011 1.886-1.721 3.261-4.142 3.261zm0-1.437c1.432 0 2.353-.773 2.364-1.938-.011-1.21-1.011-2.074-2.364-2.074-1.375 0-2.375.864-2.363 2.074-.012 1.165.903 1.938 2.363 1.938zm0-5.415c1.154 0 1.989-.744 2-1.852-.011-1.091-.818-1.813-2-1.813-1.204 0-2.011.722-2 1.813-.011 1.108.818 1.852 2 1.852zm5.426 4.42v-1.42l5.029-7.943h2.165v7.875h1.54v1.488h-1.54V46h-1.677v-2.273h-5.517zm5.529-1.488v-5.784h-.091l-3.597 5.693v.09h3.688zm6.37 2.17l-.086.62c-.176 1.363-.778 3.068-1.051 3.812h-1.205c.154-.705.517-2.256.648-3.796l.057-.636h1.636zm5.738-10.233c2.074.017 4.244 1.307 4.25 5.585-.006 4.074-1.693 6.398-4.398 6.398-2.08 0-3.534-1.33-3.79-3.21h1.733c.228.994.943 1.676 2.057 1.676 1.705 0 2.71-1.562 2.716-4.239h-.09c-.598.978-1.654 1.58-2.887 1.58-2.017 0-3.631-1.602-3.631-3.83 0-2.227 1.597-3.977 4.04-3.96zm.005 1.477c-1.335 0-2.34 1.086-2.34 2.46 0 1.353.971 2.421 2.306 2.421 1.33 0 2.375-1.136 2.375-2.437 0-1.302-.994-2.444-2.34-2.444zm9.665-1.477c2.074.017 4.245 1.307 4.25 5.585-.005 4.074-1.693 6.398-4.397 6.398-2.08 0-3.535-1.33-3.79-3.21h1.733c.227.994.943 1.676 2.057 1.676 1.704 0 2.71-1.562 2.715-4.239h-.09c-.597.978-1.654 1.58-2.887 1.58-2.017 0-3.63-1.602-3.63-3.83 0-2.227 1.596-3.977 4.04-3.96zm.006 1.477c-1.335 0-2.341 1.086-2.341 2.46 0 1.353.972 2.421 2.307 2.421 1.33 0 2.375-1.136 2.375-2.437 0-1.302-.994-2.444-2.341-2.444zM374.85 46v-1.273l3.938-4.08c1.245-1.317 1.858-2.062 1.864-3.09-.006-1.16-.903-1.887-2.09-1.887-1.25 0-2.07.813-2.07 2.069h-1.67c0-2.125 1.603-3.534 3.779-3.534 2.199 0 3.693 1.477 3.699 3.346 0 1.352-.654 2.387-2.67 4.438l-2.313 2.42v.085h5.193V46h-7.66z"/>
            <path fill="#A7AAB8" d="M121.053 72.13v1.194h-2.813v2.812h-1.193v-2.812h-2.813V72.13h2.813v-2.813h1.193v2.813h2.813zm6.946 5.37V66.59h3.92c2.195 0 3.473 1.365 3.473 3.325 0 1.406-.66 2.557-2.045 3.068l2.471 4.517h-1.534l-2.301-4.261h-2.663V77.5h-1.321zm1.32-5.455h2.387c1.64 0 2.386-.81 2.386-2.109 0-1.364-.788-2.173-2.237-2.173h-2.535v4.282zm11.442 5.625c-2.365 0-3.814-1.683-3.814-4.197 0-2.514 1.47-4.261 3.687-4.261 1.704 0 3.515 1.044 3.515 4.09v.533h-5.94c.06 1.753 1.077 2.706 2.552 2.706.986 0 1.726-.426 2.046-1.278l1.214.34c-.383 1.236-1.598 2.067-3.26 2.067zm-2.551-4.921h4.66c0-1.385-.873-2.408-2.236-2.408-1.439 0-2.339 1.135-2.424 2.408zm11.18 4.921c-2.3 0-3.707-1.768-3.707-4.218 0-2.493 1.47-4.24 3.686-4.24 1.726 0 3.026 1.022 3.239 2.556h-1.257c-.192-.745-.852-1.427-1.96-1.427-1.47 0-2.45 1.214-2.45 3.068 0 1.896.958 3.132 2.45 3.132.98 0 1.725-.532 1.96-1.427h1.257c-.213 1.449-1.406 2.556-3.217 2.556zm8.48 0c-2.364 0-3.813-1.683-3.813-4.197 0-2.514 1.47-4.261 3.686-4.261 1.704 0 3.516 1.044 3.516 4.09v.533h-5.94c.059 1.753 1.076 2.706 2.552 2.706.985 0 1.726-.426 2.045-1.278l1.215.34c-.384 1.236-1.598 2.067-3.26 2.067zm-2.55-4.921h4.66c0-1.385-.873-2.408-2.237-2.408-1.438 0-2.339 1.135-2.424 2.408zm7.856 4.751v-8.182h1.257V77.5h-1.257zm.64-9.524c-.49 0-.896-.384-.896-.852 0-.47.405-.853.895-.853s.895.384.895.853c0 .468-.405.852-.895.852zm9.609 1.342l-3.026 8.182h-1.278l-3.026-8.182h1.364l2.258 6.52h.086l2.258-6.52h1.364zm4.794 8.352c-2.365 0-3.814-1.683-3.814-4.197 0-2.514 1.47-4.261 3.686-4.261 1.704 0 3.516 1.044 3.516 4.09v.533h-5.94c.059 1.753 1.076 2.706 2.552 2.706.985 0 1.726-.426 2.045-1.278l1.215.34c-.384 1.236-1.598 2.067-3.26 2.067zm-2.552-4.921h4.661c0-1.385-.873-2.408-2.237-2.408-1.438 0-2.339 1.135-2.424 2.408zm14.697 4.751h-1.215v-1.257H189c-.277.447-.81 1.427-2.386 1.427-2.046 0-3.473-1.64-3.473-4.24 0-2.578 1.427-4.218 3.494-4.218 1.598 0 2.088.98 2.365 1.406h.107V66.59h1.257V77.5zm-1.236-4.09c0-1.833-.81-3.07-2.344-3.07-1.598 0-2.386 1.343-2.386 3.07 0 1.746.81 3.131 2.386 3.131 1.513 0 2.344-1.278 2.344-3.132zm12.443-1.173v1.172h-4.773v-1.172h4.773zm10.036 5.412c-1.79-.021-3.793-1.145-3.793-5.177 0-3.878 1.507-6.052 3.963-6.052 1.832 0 3.121 1.183 3.388 2.898h-1.3c-.245-1.001-.937-1.726-2.088-1.726-1.689 0-2.722 1.54-2.727 4.22h.085a3.17 3.17 0 0 1 2.685-1.45c1.87 0 3.43 1.513 3.43 3.622 0 2.03-1.438 3.692-3.643 3.665zm0-1.172c1.337 0 2.365-1.108 2.365-2.493 0-1.353-.986-2.45-2.323-2.45-1.353 0-2.402 1.167-2.408 2.472-.005 1.305.997 2.471 2.366 2.471zm6.669-.618a.955.955 0 0 1-.96-.958c0-.533.448-.938.96-.938a.95.95 0 0 1 .958.938.955.955 0 0 1-.958.958zm0-5.518a.955.955 0 0 1-.96-.959c0-.533.448-.937.96-.937a.95.95 0 0 1 .958.937.955.955 0 0 1-.958.959zm6.882 7.308c-2.115 0-3.628-1.161-3.708-2.876h1.343c.08 1.054 1.08 1.704 2.343 1.704 1.401 0 2.408-.783 2.408-1.939 0-1.203-.921-2.045-2.578-2.045h-.874V71.32h.874c1.294 0 2.195-.746 2.195-1.896 0-1.103-.778-1.833-1.982-1.833-1.135 0-2.168.64-2.216 1.726h-1.278c.064-1.715 1.63-2.876 3.515-2.876 2.02 0 3.239 1.374 3.239 2.919 0 1.23-.687 2.136-1.79 2.471v.086c1.374.229 2.195 1.235 2.195 2.62 0 1.785-1.572 3.111-3.686 3.111zm9.332-11.229c1.79.022 3.793 1.151 3.793 5.178 0 3.878-1.513 6.051-3.963 6.051-1.833 0-3.133-1.172-3.388-2.898h1.3c.234 1.002.937 1.726 2.088 1.726 1.683 0 2.727-1.534 2.727-4.218h-.085c-.597.894-1.556 1.448-2.685 1.448-1.875 0-3.43-1.512-3.43-3.622 0-2.024 1.427-3.686 3.643-3.665zm0 1.172c-1.342 0-2.365 1.108-2.365 2.493 0 1.364.98 2.45 2.322 2.45 1.343 0 2.408-1.171 2.408-2.471s-1.001-2.472-2.365-2.472zm9.652 10.078c-1.577 0-2.11-.98-2.386-1.427h-.107v4.325h-1.257v-11.25h1.215v1.3h.149c.277-.426.767-1.406 2.365-1.406 2.066 0 3.494 1.64 3.494 4.218 0 2.6-1.428 4.24-3.473 4.24zm-.17-1.129c1.576 0 2.386-1.385 2.386-3.132 0-1.726-.788-3.068-2.386-3.068-1.535 0-2.344 1.236-2.344 3.068 0 1.854.83 3.132 2.344 3.132zm5.56.959v-8.182h1.215v1.279h.107c.34-.874 1.129-1.385 2.194-1.385 1.076 0 1.79.511 2.195 1.385h.085c.42-.847 1.279-1.385 2.45-1.385 1.46 0 2.493.89 2.493 2.812V77.5h-1.257v-5.476c0-1.209-.767-1.683-1.662-1.683-1.15 0-1.81.778-1.81 1.832V77.5h-1.28v-5.604c0-.932-.665-1.555-1.619-1.555-.98 0-1.853.847-1.853 2.045V77.5h-1.257z"/>
        </g>
        <g transform="translate(57 33)">
            <rect width="34.2" height="30" fill="#E3FFF9" rx="3.2"/>
            <path fill="#8BFCE1" d="M20.933 9.375H34.8a3.2 3.2 0 0 1 3.2 3.2v4.85a3.2 3.2 0 0 1-3.2 3.2H20.933a3.2 3.2 0 0 1-3.2-3.2v-4.85a3.2 3.2 0 0 1 3.2-3.2z"/>
            <path fill="#36C7A5" d="M34.29 9.375v11.25h-13.9a3.2 3.2 0 0 1-3.2-3.2v-4.85a3.2 3.2 0 0 1 3.2-3.2h13.9z"/>
            <ellipse cx="22.8" cy="15" fill="#EBFFFA" rx="2.533" ry="2.5"/>
        </g>
    </g>
</svg>
