<svg xmlns="http://www.w3.org/2000/svg" width="72" height="60" viewBox="0 0 72 60">
    <g fill="none" fill-rule="evenodd">
        <circle cx="30" cy="30" r="30" fill="#FFF2F4"/>
        <path fill="#FF002A" fill-rule="nonzero" d="M43.378 30.307c.28.548.612 1.074.952 1.589a33.496 33.496 0 0 0 3.014 3.934 29.696 29.696 0 0 0 4.936 4.435c.478.34.968.668 1.467.971.55.336 1.112.689 1.707.934.436.182.927.15 1.384.062.687-.129 1.304-.552 1.799-1.025.423-.407.85-.805 1.274-1.212.168-.157.281-.307.436-.485-.155.183-.255.307-.142.187.03-.03.058-.063.088-.092.033-.033.067-.062.105-.095.18-.162-.306.212-.093.07.122-.082.252-.149.386-.207l-.302.125c.18-.071.37-.12.562-.146-.113.017-.222.03-.335.046.243-.03.482-.025.72.008l-.335-.045c.353.054.692.157 1.024.294l-.302-.124c.33.145.637.332.951.514l1.653.959c1.274.738 2.545 1.477 3.82 2.215.381.22.746.453 1.148.619l-.301-.125c.134.058.255.137.377.216.092.062.18.178-.168-.129.025.021.055.042.08.067.054.05.109.1.16.153.024.03.05.058.075.087-.302-.336-.176-.232-.11-.132.047.07.085.14.118.215l-.126-.298c.046.112.08.224.097.344-.017-.112-.03-.22-.046-.332.016.12.012.245 0 .365.016-.112.029-.22.046-.332a1.986 1.986 0 0 1-.13.46l.126-.298a3.15 3.15 0 0 1-.344.598c-.03.041-.122.161 0 .004.134-.174 0-.004-.034.033-.126.145-.26.282-.398.415-.134.133-.269.27-.403.402l-1.723 1.73c-.604.602-1.204 1.208-1.807 1.81-.277.278-.57.543-.797.863-.134.19.272-.311.1-.133-.058.062-.117.12-.18.174-.017.017-.037.03-.058.046-.055.05.33-.24.167-.129-.054.038-.105.07-.159.104-.138.083-.281.154-.428.216l.302-.125a4.735 4.735 0 0 1-1.19.303l.335-.045c-.835.107-1.677.062-2.508-.046.113.017.223.029.336.046-.583-.08-1.166-.179-1.728-.353a24.41 24.41 0 0 1-1.312-.448 31.478 31.478 0 0 1-1.095-.432l.302.125a37.105 37.105 0 0 1-3.476-1.677 39.984 39.984 0 0 1-4.872-3.14c-.1-.075-.457-.35-.055-.042-.096-.075-.197-.15-.293-.228a41.804 41.804 0 0 1-3.505-3.079 40.457 40.457 0 0 1-3.536-3.98c-.1-.132-.2-.26-.297-.394a30.517 30.517 0 0 1-.541-.742 42.13 42.13 0 0 1-3.967-6.913c-.147-.324-.29-.647-.432-.975l.126.299c-.268-.631-.507-1.27-.78-1.9l.126.298a7.028 7.028 0 0 1-.478-1.797c.017.112.03.22.046.332a6.585 6.585 0 0 1-.004-1.747c-.017.113-.03.22-.046.332a5.67 5.67 0 0 1 .39-1.415l-.126.3a5.443 5.443 0 0 1 .641-1.104c.076-.113-.096.124-.088.112.021-.034.063-.08.093-.112l.012-.013c.097-.104.201-.2.302-.303l1.422-1.419 3.09-3.083c.063-.066.15-.128.205-.199-.008.012-.352.257-.172.133.047-.03.088-.058.135-.087.138-.087.28-.162.431-.224l-.301.124c.184-.079.377-.133.574-.166-.113.017-.222.03-.335.046.155-.021.306-.025.46-.004-.112-.017-.221-.03-.335-.046.126.02.244.054.361.1l-.302-.125c.1.046.189.104.281.162-.344-.22-.176-.141-.084-.05.059.058.11.12.164.183-.269-.3-.105-.133-.042-.03.042.067.084.138.117.208.042.079.076.162.113.24.06.117.122.229.18.341.324.61.646 1.22.973 1.83.772 1.452 1.54 2.9 2.31 4.352.076.146.148.3.236.44.054.092.138.179.205.262.097.124-.26-.357-.13-.166.097.145.18.294.252.452l-.126-.299c.088.208.147.423.18.648l-.046-.332c.021.19.021.377 0 .568.017-.112.03-.22.046-.332a2.55 2.55 0 0 1-.176.635l.126-.299a3.042 3.042 0 0 1-.193.365c-.03.046-.084.17-.138.204-.009.004.176-.212.084-.108-.042.05-.084.1-.126.145a3.224 3.224 0 0 1-.206.207c-.239.216-.474.432-.713.652l-.679.622c-.02.017-.042.033-.059.054-.058.062.349-.278.219-.17-.177.154-.348.25-.491.423-.247.3-.461.631-.528 1.021-.105.602-.005 1.129.285 1.66.314.572 1.165.8 1.719.448.587-.378.784-1.091.453-1.701-.034-.058-.059-.116-.088-.179l.126.299a1.255 1.255 0 0 1-.072-.274c.017.112.03.22.046.332a1.154 1.154 0 0 1 0-.24c-.016.112-.029.22-.046.331a.97.97 0 0 1 .072-.244l-.126.298c.033-.07.08-.128.113-.195-.189.345-.168.195-.05.087.184-.17-.164.12-.143.104.076-.074.294-.224.285-.216.143-.124.281-.257.42-.385.377-.345.767-.677 1.132-1.034.964-.942 1.421-2.244 1.153-3.56a3.468 3.468 0 0 0-.432-1.074c-.042-.067-.084-.133-.13-.195a4.935 4.935 0 0 0-.227-.29c-.088-.1.235.344.19.236-.097-.216-.223-.424-.336-.631-.256-.481-.512-.963-.763-1.44-.617-1.158-1.229-2.315-1.845-3.473-.206-.386-.411-.772-.613-1.158-.239-.448-.452-.88-.792-1.27-.7-.788-1.795-1.037-2.801-.792-.554.137-1.157.432-1.58.822-.538.498-1.04 1.033-1.557 1.548-.91.908-1.82 1.817-2.73 2.721-.234.237-.477.465-.708.706-.675.701-1.157 1.643-1.426 2.568-.448 1.556-.327 3.336.256 4.847.067.174.139.348.218.518l-.126-.298c1.128 2.933 2.525 5.763 4.248 8.398a42.382 42.382 0 0 0 5.103 6.381 42.155 42.155 0 0 0 5.376 4.631 40.137 40.137 0 0 0 4.721 2.967 38.594 38.594 0 0 0 3.971 1.838c.675.27 1.359.519 2.055.726.34.1.691.166 1.04.224 1.425.245 2.922.374 4.344.017.72-.183 1.467-.523 1.991-1.062a2.18 2.18 0 0 0 .357-.453c-.004.009-.306.353-.143.2a3137.665 3137.665 0 0 1 3.908-3.917c.587-.59 1.237-1.17 1.631-1.905.365-.685.55-1.51.285-2.261-.222-.631-.624-1.096-1.161-1.49a3.34 3.34 0 0 0-.725-.378l.301.125c-1.69-.98-3.38-1.963-5.07-2.942-.62-.361-1.232-.734-1.857-1.079-1.5-.817-3.656-1.008-4.897.374-.084.095-.306.294-.285.356-.004-.012.306-.348.13-.186-.21.19-.407.39-.613.58-.234.225-.47.445-.704.669-.038.037-.08.074-.117.112l-.176.162c-.105.083-.076.066.083-.059l-.113.08a2.107 2.107 0 0 1-.369.198l.302-.124c-.16.066-.323.112-.495.137.114-.017.223-.03.336-.046a1.5 1.5 0 0 1-.386.004c.113.017.222.03.335.046a.848.848 0 0 1-.1-.017l.302.125a23.06 23.06 0 0 1-2.13-1.237 30.808 30.808 0 0 1-.973-.663c-.151-.108-.302-.22-.453-.332l-.1-.075.083.062-.264-.207a28.445 28.445 0 0 1-3.12-2.892 34.268 34.268 0 0 1-1.258-1.432c-.083-.104-.172-.207-.255-.311-.084-.104-.432-.552-.118-.145-.168-.216-.331-.436-.495-.656a28.272 28.272 0 0 1-1.392-2.062 13.44 13.44 0 0 1-.549-.954c-.298-.581-1.174-.797-1.72-.449-.607.386-.78 1.083-.456 1.706z"/>
    </g>
</svg>
