<svg xmlns="http://www.w3.org/2000/svg" width="60" height="60" viewBox="0 0 60 60">
    <g fill="none" fill-rule="evenodd">
        <circle cx="30" cy="30" r="30" fill="#FF002A" opacity=".15"/>
        <g fill="#FF3C5C" fill-rule="nonzero">
            <path d="M35.041 23.812c.615-.689 1.026-1.51 1.146-2.348.146-1.02-.145-1.978-.797-2.63-.538-.538-1.288-.834-2.112-.834-1.09 0-2.216.501-3.089 1.375-.091.091-.162.191-.244.287-.039-.042-.068-.087-.109-.128-.845-.845-1.934-1.33-2.99-1.33-.8 0-1.529.288-2.053.812-1.204 1.205-1.044 3.257.309 4.796H18V31h11v-5.188h2V31h11v-7.188h-6.959zm-6.139-.628c-.183.16-.424.204-.601.204-.521 0-1.109-.278-1.575-.744-.805-.805-.918-1.812-.518-2.214.187-.187.45-.226.639-.226.521 0 1.109.278 1.575.744.215.215.377.444.497.673a3.457 3.457 0 0 0-.017 1.563zm5.305-2.002c-.07.495-.352 1.02-.772 1.439-.494.495-1.12.79-1.674.79-.197 0-.47-.043-.673-.23a3.421 3.421 0 0 0-.047-1.596c.129-.271.31-.542.563-.796.493-.494 1.119-.789 1.674-.789.205 0 .492.043.698.248.277.277.264.704.231.934zM18 33h11v9H18zM31 33h11v9H31z"/>
        </g>
    </g>
</svg>
