<svg xmlns="http://www.w3.org/2000/svg" xmlns:xlink="http://www.w3.org/1999/xlink" width="48" height="48" viewBox="0 0 48 48">
    <defs>
        <rect id="a" width="48" height="48" rx="24"/>
        <rect id="c" width="35" height="35" rx="17.5"/>
        <path id="e" d="M14.894 9.756A5.85 5.85 0 0 0 14.95 9c0-.262-.024-.51-.056-.756l1.674-1.273a.382.382 0 0 0 .095-.494l-1.586-2.669c-.096-.17-.31-.231-.484-.17l-1.975.772a5.835 5.835 0 0 0-1.34-.756l-.302-2.044a.384.384 0 0 0-.388-.324H7.416a.384.384 0 0 0-.389.324l-.301 2.044a6.136 6.136 0 0 0-1.34.756L3.41 3.639a.392.392 0 0 0-.484.17L1.34 6.476a.373.373 0 0 0 .095.494l1.673 1.273A5.954 5.954 0 0 0 3.054 9c0 .255.024.51.055.756l-1.673 1.273a.382.382 0 0 0-.095.494l1.586 2.669c.095.17.31.231.484.17l1.974-.772c.413.309.857.563 1.34.756l.302 2.044c.024.185.19.324.389.324h3.172a.384.384 0 0 0 .388-.324l.302-2.044a6.136 6.136 0 0 0 1.34-.756l1.975.771c.182.07.388 0 .484-.17l1.586-2.668a.382.382 0 0 0-.095-.494l-1.674-1.273zM9.002 11.7c-1.53 0-2.776-1.211-2.776-2.7s1.245-2.7 2.776-2.7c1.53 0 2.775 1.211 2.775 2.7s-1.245 2.7-2.775 2.7z"/>
    </defs>
    <g fill="none" fill-rule="evenodd">
        <g opacity=".2">
            <mask id="b" fill="#fff">
                <use xlink:href="#a"/>
            </mask>
            <g fill="#2B63E3" mask="url(#b)">
                <path d="M0 0h48v48H0z"/>
            </g>
        </g>
        <g transform="translate(6.26 6.26)">
            <mask id="d" fill="#fff">
                <use xlink:href="#c"/>
            </mask>
            <g fill="#2B63E3" mask="url(#d)">
                <path d="M0 0h35v35H0z"/>
            </g>
        </g>
        <g transform="translate(14.76 14.76)">
            <mask id="f" fill="#fff">
                <use xlink:href="#e"/>
            </mask>
            <use fill="#FFF" xlink:href="#e"/>
            <g fill="#FFF" mask="url(#f)">
                <path d="M0 0h18v18H0z"/>
            </g>
        </g>
    </g>
</svg>
