<svg xmlns="http://www.w3.org/2000/svg" xmlns:xlink="http://www.w3.org/1999/xlink" width="48" height="48" viewBox="0 0 48 48">
    <defs>
        <rect id="a" width="48" height="48" rx="24"/>
        <rect id="c" width="35" height="35" rx="17.5"/>
        <path id="e" d="M7.273 3.636c4.017 0 7.273 2.63 7.273 5.875 0 3.246-3.256 5.874-7.273 5.874a8.83 8.83 0 0 1-2.45-.342c-.92.734-2.377 1.671-3.803 1.671.717-.71.964-2.03 1.038-3.109C.784 12.548 0 11.101 0 9.511c0-3.246 3.256-5.875 7.273-5.875zm9.667 6.447c-.026 1.031.046 3.27 1.06 4.281-1.425 0-2.885-.94-3.803-1.673.925-1.058 1.468-2.362 1.468-3.768 0-3.568-3.507-6.462-7.833-6.462-.637 0-1.257.063-1.85.18 1.26-.845 2.88-1.355 4.648-1.355 4.017 0 7.273 2.63 7.273 5.875 0 1.064-.35 2.063-.963 2.922z"/>
    </defs>
    <g fill="none" fill-rule="evenodd">
        <g opacity=".2">
            <mask id="b" fill="#fff">
                <use xlink:href="#a"/>
            </mask>
            <g fill="#26CADE" mask="url(#b)">
                <path d="M0 0h48v48H0z"/>
            </g>
        </g>
        <g transform="translate(6.26 6.26)">
            <mask id="d" fill="#fff">
                <use xlink:href="#c"/>
            </mask>
            <g fill="#26CADE" mask="url(#d)">
                <path d="M0 0h35v35H0z"/>
            </g>
        </g>
        <g transform="translate(14.76 14.76)">
            <mask id="f" fill="#fff">
                <use xlink:href="#e"/>
            </mask>
            <use fill="#030104" fill-rule="nonzero" xlink:href="#e"/>
            <g fill="#FFF" mask="url(#f)">
                <path d="M0 0h18v18H0z"/>
            </g>
        </g>
    </g>
</svg>
