<svg xmlns="http://www.w3.org/2000/svg" xmlns:xlink="http://www.w3.org/1999/xlink" width="48" height="48" viewBox="0 0 48 48">
    <defs>
        <rect id="a" width="48" height="48" rx="24"/>
        <rect id="c" width="35" height="35" rx="17.5"/>
        <path id="e" d="M13.49 1.53a.884.884 0 0 0-.572-.244H4.39c-1.003 0-1.819.762-1.819 1.7v12.028c0 .938.816 1.7 1.819 1.7h9.22c1.002 0 1.819-.762 1.819-1.7V3.957a.97.97 0 0 0-.226-.57L13.49 1.532zm-.56 8.76H5.07c-.24 0-.435-.18-.435-.405 0-.225.194-.408.435-.408h7.86c.24 0 .434.183.434.408 0 .224-.195.406-.434.406zm0-3.437H5.07c-.24 0-.435-.18-.435-.406 0-.224.194-.408.435-.408h7.86c.24 0 .434.183.434.408 0 .225-.195.406-.434.406zm1.41-2.705h-1.542c-.22 0-.398-.167-.398-.372V2.164c0-.206.121-.25.27-.1l1.797 1.811c.15.151.092.273-.127.273zm-9.306 8.76h3.561a.405.405 0 0 1 0 .81H5.034a.405.405 0 0 1 0-.81z"/>
    </defs>
    <g fill="none" fill-rule="evenodd">
        <g opacity=".2">
            <mask id="b" fill="#fff">
                <use xlink:href="#a"/>
            </mask>
            <g fill="#42CB83" mask="url(#b)">
                <path d="M0 0h48v48H0z"/>
            </g>
        </g>
        <g transform="translate(6.26 6.26)">
            <mask id="d" fill="#fff">
                <use xlink:href="#c"/>
            </mask>
            <g fill="#42CB83" mask="url(#d)">
                <path d="M0 0h35v35H0z"/>
            </g>
        </g>
        <g transform="translate(14.76 14.76)">
            <mask id="f" fill="#fff">
                <use xlink:href="#e"/>
            </mask>
            <use fill="#010002" fill-rule="nonzero" xlink:href="#e"/>
            <g fill="#FFF" mask="url(#f)">
                <path d="M0 0h18v18H0z"/>
            </g>
        </g>
    </g>
</svg>
