<svg xmlns="http://www.w3.org/2000/svg" width="86" height="60" viewBox="0 0 86 60">
    <g fill="none" fill-rule="evenodd">
        <circle cx="30" cy="30" r="30" fill="#FFF2F4"/>
        <path fill="#FF002A" fill-rule="nonzero" d="M35.78 12.942c-4.68.343-8.563 4.48-8.639 8.794v10.05c0 4.468 3.497 8.795 8.022 8.795h2.005c.361 2.01.377 4.048-.135 6.655-.105.508.14 1.069.579 1.335a1.245 1.245 0 0 0 1.427-.118c2.88-2.444 5.11-4.264 6.614-6.616.353 4.735 4.436 8.717 8.639 8.795H65.92c1.465 3.012 3.952 5.008 7.327 7.871.39.336.991.387 1.43.12a1.3 1.3 0 0 0 .576-1.337c-.512-2.606-.496-4.645-.135-6.654h2.005c4.525 0 8.022-4.328 8.022-8.795v-10.05c-.344-4.77-4.413-8.718-8.639-8.794h-9.873v-1.257c-.35-4.751-4.42-8.717-8.639-8.794H35.78zm0 2.513h22.214c3.215.322 6.11 3.153 6.17 6.281v1.257h-9.872c-4.664.35-8.562 4.497-8.64 8.794v6.282c-.485 0-.955.326-1.137.785-.803 2.045-2.506 3.68-4.705 5.594.118-1.896.06-3.702-.366-5.437-.136-.535-.653-.943-1.196-.942h-3.085c-2.88 0-5.554-3.211-5.554-6.282v-10.05c.306-3.296 3.098-6.222 6.17-6.282zm18.512 10.05h22.214c3.235.312 6.111 3.144 6.17 6.282v10.05c0 3.071-2.673 6.282-5.553 6.282h-3.085c-.543 0-1.06.408-1.196.942-.426 1.735-.484 3.542-.366 5.438-2.199-1.914-3.902-3.55-4.705-5.595a1.265 1.265 0 0 0-1.138-.785H54.292c-3.201-.331-6.11-3.171-6.17-6.282v-10.05c.316-3.273 3.097-6.22 6.17-6.282zm3.702 9.423c-1.022 0-1.851.843-1.851 1.884s.829 1.885 1.851 1.885c1.023 0 1.851-.844 1.851-1.885 0-1.04-.828-1.884-1.85-1.884zm7.405 0c-1.022 0-1.851.843-1.851 1.884s.829 1.885 1.85 1.885c1.023 0 1.852-.844 1.852-1.885 0-1.04-.829-1.884-1.851-1.884zm7.405 0c-1.023 0-1.852.843-1.852 1.884s.83 1.885 1.852 1.885c1.022 0 1.85-.844 1.85-1.885 0-1.04-.828-1.884-1.85-1.884z"/>
    </g>
</svg>
