<svg xmlns="http://www.w3.org/2000/svg" width="60" height="60" viewBox="0 0 60 60">
    <g fill="none" fill-rule="evenodd">
        <circle cx="30" cy="30" r="30" fill="#FF002A" opacity=".15"/>
        <path fill="#FF3C5C" fill-rule="nonzero" d="M19.024 42.536a.734.734 0 0 0 .564.285h.106l6.353-1.107c1.27.465 2.612.679 3.953.679 6.6 0 11.965-5.429 11.965-12.107 0-6.679-5.365-12.107-11.965-12.107s-11.965 5.428-11.965 12.107c0 1.535.283 3 .812 4.393a11.547 11.547 0 0 0 1.765 3.071l-1.694 4.071c-.106.25-.07.536.106.715zM36.07 28.214c1.235 0 2.258 1.036 2.258 2.286s-1.023 2.286-2.258 2.286c-1.236 0-2.26-1.036-2.26-2.286s1.024-2.286 2.26-2.286zm-6.071 0c1.235 0 2.259 1.036 2.259 2.286S31.235 32.786 30 32.786c-1.235 0-2.259-1.036-2.259-2.286s1.024-2.286 2.259-2.286zm-6.07 0c1.235 0 2.258 1.036 2.258 2.286s-1.023 2.286-2.259 2.286c-1.235 0-2.258-1.036-2.258-2.286s.988-2.286 2.258-2.286z"/>
    </g>
</svg>
