<svg xmlns="http://www.w3.org/2000/svg" width="28" height="28" viewBox="0 0 28 28">
    <g fill="#FF002A" fill-rule="nonzero">
        <path d="M27.417 19.498h-2.334V4.728a2.383 2.383 0 0 0-.924-4.58H3.84a2.383 2.383 0 0 0-.924 4.58v14.77H.583a.583.583 0 1 0 0 1.167h2.8a.583.583 0 0 0 .23 0h9.804v2.298a2.185 2.185 0 1 0 1.166.026v-2.333h9.8a.583.583 0 0 0 .23 0h2.804a.583.583 0 1 0 0-1.167v.009zM14.97 25.083a1.02 1.02 0 1 1-2.041 0 1.02 1.02 0 0 1 2.041 0zm8.946-5.585H4.083V4.915h19.834v14.583zm.242-15.75H3.84a1.216 1.216 0 1 1 0-2.43H24.16a1.216 1.216 0 1 1 0 2.43z"/>
        <path d="M14 17.54a5.323 5.323 0 1 0 0-10.645 5.323 5.323 0 0 0 0 10.646zm-.51-9.443v3.657H9.87a4.162 4.162 0 0 1 3.62-3.657zm.583 4.827a.583.583 0 0 0 .583-.584V8.117a4.153 4.153 0 1 1-4.74 4.804l4.157.003z"/>
    </g>
</svg>
